<svg xmlns="http://www.w3.org/2000/svg" viewBox="0 0 190.22 186.1"><defs><style>.cls-1{fill:#ddd6ca;}.cls-2{font-size:10.97px;}.cls-2,.cls-3,.cls-4,.cls-6{fill:#3e3f41;}.cls-2,.cls-4{font-family:Butler;}.cls-4{font-size:26.41px;}.cls-5{letter-spacing:-0.04em;}.cls-6{font-size:11.93px;font-family:Antonio-Light, Antonio Light;font-weight:300;}.cls-7{letter-spacing:-0.04em;}.cls-8{letter-spacing:0em;}</style></defs><g id="Layer_2" data-name="Layer 2"><g id="OBJECTS"><circle class="cls-1" cx="98.99" cy="101.76" r="65.32" transform="translate(-23.87 172.89) rotate(-75.86)"/><text class="cls-2" transform="matrix(0.18, -0.98, 0.98, 0.18, 22.55, 87.18)">-</text><text class="cls-2" transform="matrix(0.23, -0.97, 0.97, 0.23, 23.28, 83.41)"> </text><text class="cls-2" transform="matrix(0.31, -0.95, 0.95, 0.31, 23.69, 81.09)">W</text><text class="cls-2" transform="matrix(0.41, -0.91, 0.91, 0.41, 26.76, 71.98)">E</text><text class="cls-2" transform="matrix(0.48, -0.88, 0.88, 0.48, 29.14, 66.68)">L</text><text class="cls-2" transform="matrix(0.54, -0.84, 0.84, 0.54, 31.83, 61.78)">L</text><text class="cls-2" transform="matrix(0.62, -0.79, 0.79, 0.62, 34.84, 57.09)">N</text><text class="cls-2" transform="matrix(0.68, -0.73, 0.73, 0.68, 39.6, 51.11)">E</text><text class="cls-2" transform="matrix(0.73, -0.68, 0.68, 0.73, 43.57, 46.89)">S</text><text class="cls-2" transform="matrix(0.78, -0.62, 0.62, 0.78, 47.88, 42.93)">S</text><text class="cls-2" transform="matrix(0.81, -0.59, 0.59, 0.81, 52.48, 39.31)"> </text><text class="cls-2" transform="matrix(0.83, -0.56, 0.56, 0.83, 54.78, 37.66)"> </text><text class="cls-2" transform="matrix(0.86, -0.51, 0.51, 0.86, 57.05, 36.07)">C</text><text class="cls-2" transform="matrix(0.89, -0.45, 0.45, 0.89, 62.88, 32.6)">E</text><text class="cls-2" transform="matrix(0.93, -0.37, 0.37, 0.93, 68.06, 29.97)">N</text><text class="cls-2" transform="matrix(0.96, -0.29, 0.29, 0.96, 75.13, 27.19)">T</text><text class="cls-2" transform="matrix(0.98, -0.22, 0.22, 0.98, 80.74, 25.51)">E</text><text class="cls-2" transform="matrix(0.99, -0.13, 0.13, 0.99, 86.41, 24.26)">R</text><text class="cls-2" transform="matrix(1, -0.07, 0.07, 1, 92.7, 23.48)"> </text><text class="cls-2" transform="matrix(1, -0.03, 0.03, 1, 95.49, 23.28)">-</text><path class="cls-3" d="M136.6,25.34a84.35,84.35,0,0,1,41.1,46.59,87.18,87.18,0,0,1,3,10.17,88,88,0,0,1,1.65,10.47,89.35,89.35,0,0,1-.32,21.18c-.23,1.75-.59,3.49-.91,5.24s-.77,3.46-1.3,5.15l-.75,2.55-.87,2.52c-.54,1.69-1.29,3.3-1.93,4.95a89.23,89.23,0,0,1-10.68,18.32,86,86,0,0,1-14.89,15.07,91.76,91.76,0,0,1-18.1,11,82.2,82.2,0,0,1-20.2,6.39,86.28,86.28,0,0,1-41.91-3.36L68,180.68l-2.46-1c-1.66-.61-3.25-1.41-4.87-2.1a88.34,88.34,0,0,1-9.28-5.15,78.5,78.5,0,0,1-8.58-6.27,85.24,85.24,0,0,1-27.46-44.41l.44-.11A85.39,85.39,0,0,0,35.9,158.08a88.1,88.1,0,0,0,7.6,7.24,93.61,93.61,0,0,0,8.4,6.28,85.48,85.48,0,0,0,9.1,5.24,76.91,76.91,0,0,0,9.73,4,84.42,84.42,0,0,0,41.48,3.06,91.81,91.81,0,0,0,20.1-6,85.21,85.21,0,0,0,17.88-11,90.73,90.73,0,0,0,14.61-15,84.08,84.08,0,0,0,10.44-18.16,92.33,92.33,0,0,0,5.66-20.15,79.9,79.9,0,0,0,.8-21c-2.56-28.06-20.32-54-45.31-66.88Z"/><text class="cls-4" transform="translate(69.01 94.07)"><tspan class="cls-5">Y</tspan><tspan x="13.34" y="0">OGA</tspan><tspan x="-10.29" y="27.34">STUDIO</tspan></text><path class="cls-3" d="M173.15,63.26c-.7-1.53-2.21-2.58-3.6-3.6a35.19,35.19,0,0,0-4.47-2.74,34.36,34.36,0,0,0-9.89-3.28l.53-.43a5.82,5.82,0,0,0,2.48,4.33A15.82,15.82,0,0,0,163,60c1.74.55,3.55,1,5.36,1.46a27.91,27.91,0,0,1,5.35,1.89.27.27,0,0,1,.12.35.27.27,0,0,1-.31.14,55.35,55.35,0,0,0-5.41-1.31,48.08,48.08,0,0,1-5.5-1.38,15.89,15.89,0,0,1-5.11-2.73,8.13,8.13,0,0,1-1.92-2.28,5.36,5.36,0,0,1-.75-2.94v0a.46.46,0,0,1,.47-.42h.07a41.15,41.15,0,0,1,5.12,1.5,42.23,42.23,0,0,1,4.85,2.18,36.66,36.66,0,0,1,4.51,2.82c.72.53,1.42,1.06,2.09,1.66a6.7,6.7,0,0,1,1.7,2.13.27.27,0,0,1-.13.35.26.26,0,0,1-.34-.13Z"/><path class="cls-3" d="M176.54,70.71a41.87,41.87,0,0,1-1.45-10.79,45.33,45.33,0,0,1,.33-5.46,42.89,42.89,0,0,1,1-5.38.46.46,0,0,1,.55-.32.45.45,0,0,1,.24.16h0a15.86,15.86,0,0,1,3.26,11.18,21.42,21.42,0,0,1-1.5,5.68,27.81,27.81,0,0,0-1.64,5.41.25.25,0,0,1-.29.22.28.28,0,0,1-.23-.25A19.43,19.43,0,0,1,178,65.43,26.94,26.94,0,0,0,179.29,60a15.68,15.68,0,0,0-2.76-10.52l.79-.14a35.78,35.78,0,0,0-1.22,5.23,36.92,36.92,0,0,0-.46,5.36A37.67,37.67,0,0,0,177,70.58a.26.26,0,0,1-.18.32.26.26,0,0,1-.32-.18Z"/><path class="cls-3" d="M181.33,90.24a13.48,13.48,0,0,0-6.89-9.49,12.43,12.43,0,0,0-3.77-1.31l.53-.52a14.29,14.29,0,0,0,4.19,7.2,28.35,28.35,0,0,0,3.45,2.52,12.28,12.28,0,0,1,3.36,3,.26.26,0,0,1-.4.34,17.77,17.77,0,0,0-3.54-2.4,18.2,18.2,0,0,1-3.7-2.57,14.13,14.13,0,0,1-4.24-7.92v0a.43.43,0,0,1,.36-.5.48.48,0,0,1,.17,0,14.17,14.17,0,0,1,3.93,1.59,15.16,15.16,0,0,1,3.28,2.63,14.43,14.43,0,0,1,3.78,7.37.26.26,0,0,1-.2.31.27.27,0,0,1-.31-.21Z"/><path class="cls-3" d="M182.16,103.4a19.38,19.38,0,0,1,7.32-15.19.45.45,0,0,1,.63.07.41.41,0,0,1,.1.27v0a19.07,19.07,0,0,1-.35,4.5,10,10,0,0,1-1.92,4.21,36.29,36.29,0,0,1-3.09,3.2,7,7,0,0,0-2.14,3.5.26.26,0,0,1-.3.21.28.28,0,0,1-.22-.25,5.14,5.14,0,0,1,.55-2.28,10.2,10.2,0,0,1,1.3-1.91c1-1.16,2.07-2.14,3-3.22,1.75-2.15,2.21-5.1,2.3-8l.73.37a17.29,17.29,0,0,0-7.33,14.45.27.27,0,0,1-.53,0Z"/><path class="cls-3" d="M138.61,26.44a4.11,4.11,0,0,0-2.52-2.65,2.27,2.27,0,0,0-1.21-.13,1.25,1.25,0,0,0-.93.72,1.31,1.31,0,0,0,.36,1.33,2.79,2.79,0,0,0,1.27.67,7.68,7.68,0,0,0,2.86.26"/><path class="cls-3" d="M138.36,26.52a3.54,3.54,0,0,0-1.7-2.16,3,3,0,0,0-1.3-.38,1,1,0,0,0-.92.46.73.73,0,0,0,.2.79,2.3,2.3,0,0,0,1,.53c.89.26,1.78.42,2.77.62h0a.27.27,0,0,1,.21.32.28.28,0,0,1-.17.2,4.81,4.81,0,0,1-3.18,0,3,3,0,0,1-1.54-1,1.94,1.94,0,0,1-.36-1,1.52,1.52,0,0,1,.3-1,1.85,1.85,0,0,1,1.74-.64,3.92,3.92,0,0,1,1.52.61,4.83,4.83,0,0,1,1.92,2.48.26.26,0,0,1-.16.33.25.25,0,0,1-.33-.16Z"/><path class="cls-3" d="M177.55,50.51a39.71,39.71,0,0,1,.67,9.67c0,1.62-.16,3.23-.3,4.82a40.24,40.24,0,0,1-.68,4.75.26.26,0,0,1-.31.21.27.27,0,0,1-.21-.22,19.28,19.28,0,0,1,0-4.86c.16-1.6.39-3.18.6-4.77a24.57,24.57,0,0,0-.25-9.48.26.26,0,1,1,.5-.13Z"/><path class="cls-3" d="M155.75,53.83a11.33,11.33,0,0,0,4.11,2.47c1.52.56,3.11,1,4.7,1.37.8.21,1.6.46,2.39.74a24.93,24.93,0,0,1,2.31,1,13.45,13.45,0,0,1,4,3.06.26.26,0,0,1-.33.4c-1.44-.79-2.8-1.62-4.21-2.38a37.1,37.1,0,0,0-4.41-1.95c-1.53-.59-3.1-1.1-4.63-1.75a15.19,15.19,0,0,1-4.26-2.6.26.26,0,0,1,.35-.39Z"/><path class="cls-3" d="M171.88,79.61c1.86,1.55,3.68,3.14,5.41,4.86a22.51,22.51,0,0,1,2.39,2.77,10.85,10.85,0,0,1,1.7,3.25.27.27,0,0,1-.18.33.26.26,0,0,1-.27-.07A23.4,23.4,0,0,1,178.69,88c-.7-1-1.37-1.94-2.1-2.88a24.87,24.87,0,0,0-5-5.06.26.26,0,0,1-.06-.36.27.27,0,0,1,.37-.06Z"/><path class="cls-3" d="M189.64,89.94a39.54,39.54,0,0,0-3.36,6c-.49,1-.95,2.07-1.48,3.08a15,15,0,0,1-1.83,2.9.27.27,0,0,1-.38,0,.25.25,0,0,1-.09-.25,11.76,11.76,0,0,1,1.21-3.25,33.92,33.92,0,0,1,1.76-3c1.27-1.92,2.54-3.83,3.73-5.79a.26.26,0,0,1,.45.27Z"/><text class="cls-6" transform="translate(73.83 137.25)">LIVE<tspan class="cls-7" x="21" y="0"> </tspan><tspan class="cls-8" x="23.1" y="0">WELL</tspan></text></g></g></svg>